<?xml version="1.0" standalone="no"?>
<!DOCTYPE svg PUBLIC "-//W3C//DTD SVG 20010904//EN"
 "http://www.w3.org/TR/2001/REC-SVG-20010904/DTD/svg10.dtd">
<svg version="1.0" xmlns="http://www.w3.org/2000/svg"
 width="260.000000pt" height="260.000000pt" viewBox="0 0 260.000000 260.000000"
 preserveAspectRatio="xMidYMid meet">
<metadata>
Created by potrace 1.14, written by Peter Selinger 2001-2017
</metadata>
<g transform="translate(0.000000,260.000000) scale(0.100000,-0.100000)"
fill="#000000" stroke="none">
<path d="M0 1300 l0 -1300 1300 0 1300 0 0 1300 0 1300 -1300 0 -1300 0 0
-1300z m1579 1062 c12 -23 761 -2092 761 -2103 0 -5 -123 -9 -273 -9 l-272 0
-61 182 -60 183 -400 3 -399 2 -64 -185 -63 -185 -270 0 c-253 0 -270 1 -265
17 8 31 757 2094 763 2104 3 5 134 9 299 9 270 0 295 -1 304 -18z"/>
<path d="M1265 1779 c-24 -65 -245 -737 -245 -746 0 -10 56 -13 255 -13 146 0
255 4 255 9 0 11 -250 754 -255 760 -3 2 -7 -2 -10 -10z"/>
</g>
</svg>
